<svg width="32" height="32" viewBox="0 0 32 32" fill="none" xmlns="http://www.w3.org/2000/svg">
    <g clip-path="url(#clip0_638_553)">
        <g clip-path="url(#clip1_638_553)">
            <path d="M31.7613 14.908C30.4731 12.1143 28.5863 9.63803 26.2346 7.65467L30.2773 3.612L28.3906 1.724L24 6.11067C21.5698 4.70496 18.8073 3.97613 16 4C5.99995 4 1.40928 12.348 0.238617 14.908C0.0814681 15.2511 0.00012207 15.624 0.00012207 16.0013C0.00012207 16.3787 0.0814681 16.7516 0.238617 17.0947C1.5268 19.8884 3.41358 22.3646 5.76528 24.348L1.72395 28.3907L3.60928 30.276L7.99995 25.8893C10.4301 27.295 13.1926 28.0239 16 28C26 28 30.5906 19.652 31.7613 17.092C31.9181 16.7493 31.9993 16.3769 31.9993 16C31.9993 15.6231 31.9181 15.2507 31.7613 14.908ZM2.66662 16.0147C3.66662 13.8213 7.59062 6.66667 16 6.66667C18.0927 6.65443 20.1581 7.14267 22.0239 8.09067L19.6706 10.444C18.3905 9.59413 16.8558 9.21333 15.3269 9.36619C13.798 9.51906 12.3691 10.1962 11.2826 11.2827C10.1961 12.3692 9.51901 13.7981 9.36615 15.327C9.21328 16.8559 9.59409 18.3906 10.444 19.6707L7.67195 22.4427C5.53912 20.7058 3.82778 18.5081 2.66662 16.0147ZM20 16C20 17.0609 19.5785 18.0783 18.8284 18.8284C18.0782 19.5786 17.0608 20 16 20C15.406 19.9977 14.8202 19.8609 14.2866 19.6L19.6 14.2867C19.8609 14.8203 19.9977 15.406 20 16ZM12 16C12 14.9391 12.4214 13.9217 13.1715 13.1716C13.9217 12.4214 14.9391 12 16 12C16.5939 12.0023 17.1797 12.1391 17.7133 12.4L12.4 17.7133C12.139 17.1797 12.0023 16.594 12 16ZM16 25.3333C13.9072 25.3456 11.8418 24.8573 9.97595 23.9093L12.3293 21.556C13.6094 22.4059 15.1441 22.7867 16.673 22.6338C18.2019 22.4809 19.6308 21.8038 20.7173 20.7173C21.8038 19.6308 22.4809 18.2019 22.6338 16.673C22.7866 15.1441 22.4058 13.6094 21.556 12.3293L24.3266 9.55867C26.4636 11.2971 28.176 13.5001 29.3333 16C28.3146 18.2093 24.3893 25.3333 16 25.3333Z" fill="#8B8177"/>
        </g>
        <path d="M16 9.33331C14.6815 9.33331 13.3926 9.72431 12.2962 10.4568C11.1999 11.1894 10.3454 12.2306 9.84085 13.4488C9.33626 14.6669 9.20424 16.0074 9.46148 17.3006C9.71871 18.5938 10.3536 19.7817 11.286 20.714C12.2183 21.6464 13.4062 22.2813 14.6994 22.5385C15.9926 22.7958 17.3331 22.6638 18.5513 22.1592C19.7694 21.6546 20.8106 20.8001 21.5432 19.7038C22.2757 18.6075 22.6667 17.3185 22.6667 16C22.6646 14.2325 21.9615 12.5381 20.7118 11.2883C19.462 10.0385 17.7675 9.33543 16 9.33331ZM16 20C15.2089 20 14.4356 19.7654 13.7778 19.3259C13.12 18.8863 12.6073 18.2616 12.3045 17.5307C12.0018 16.7998 11.9226 15.9955 12.0769 15.2196C12.2312 14.4437 12.6122 13.731 13.1716 13.1716C13.731 12.6121 14.4438 12.2312 15.2197 12.0768C15.9956 11.9225 16.7999 12.0017 17.5308 12.3045C18.2617 12.6072 18.8864 13.1199 19.3259 13.7777C19.7654 14.4355 20 15.2089 20 16C20 17.0608 19.5786 18.0783 18.8285 18.8284C18.0783 19.5786 17.0609 20 16 20Z" fill="#8B8177"/>
    </g>
    <defs>
        <clipPath id="clip0_638_553">
            <rect width="32" height="32" fill="white"/>
        </clipPath>
        <clipPath id="clip1_638_553">
            <rect width="32" height="32" fill="white"/>
        </clipPath>
    </defs>
</svg>

