<svg
        width="32"
        height="32"
        viewBox="0 0 32 32"
        xmlns="http://www.w3.org/2000/svg"
>
    <g clip-path="url(#clip0)">
        <path
                d="M31.0279 12.5587C28.9599 9.19066 24.2559 3.53999 15.9999 3.53999C7.74395 3.53999 3.03995 9.19066 0.971946 12.5587C0.33265 13.5927 -0.00598145 14.7843 -0.00598145 16C-0.00598145 17.2157 0.33265 18.4073 0.971946 19.4413C3.03995 22.8093 7.74395 28.46 15.9999 28.46C24.2559 28.46 28.9599 22.8093 31.0279 19.4413C31.6672 18.4073 32.0059 17.2157 32.0059 16C32.0059 14.7843 31.6672 13.5927 31.0279 12.5587ZM28.7546 18.0453C26.9786 20.9333 22.9586 25.7933 15.9999 25.7933C9.04128 25.7933 5.02128 20.9333 3.24528 18.0453C2.86546 17.4307 2.66428 16.7225 2.66428 16C2.66428 15.2775 2.86546 14.5693 3.24528 13.9547C5.02128 11.0667 9.04128 6.20666 15.9999 6.20666C22.9586 6.20666 26.9786 11.0613 28.7546 13.9547C29.1344 14.5693 29.3356 15.2775 29.3356 16C29.3356 16.7225 29.1344 17.4307 28.7546 18.0453Z"
                fill="currentColor"
        />

        <path
                d="M16 9.33333C14.6815 9.33333 13.3926 9.72432 12.2962 10.4569C11.1999 11.1894 10.3454 12.2306 9.84085 13.4488C9.33626 14.6669 9.20424 16.0074 9.46148 17.3006C9.71871 18.5938 10.3536 19.7817 11.286 20.714C12.2183 21.6464 13.4062 22.2813 14.6994 22.5386C15.9926 22.7958 17.3331 22.6638 18.5513 22.1592C19.7694 21.6546 20.8106 20.8001 21.5432 19.7038C22.2757 18.6075 22.6667 17.3185 22.6667 16C22.6646 14.2325 21.9615 12.5381 20.7118 11.2883C19.462 10.0385 17.7675 9.33545 16 9.33333ZM16 20C15.2089 20 14.4356 19.7654 13.7778 19.3259C13.12 18.8863 12.6073 18.2616 12.3045 17.5307C12.0018 16.7998 11.9226 15.9956 12.0769 15.2196C12.2312 14.4437 12.6122 13.731 13.1716 13.1716C13.731 12.6122 14.4438 12.2312 15.2197 12.0769C15.9956 11.9225 16.7999 12.0017 17.5308 12.3045C18.2617 12.6072 18.8864 13.1199 19.3259 13.7777C19.7654 14.4355 20 15.2089 20 16C20 17.0609 19.5786 18.0783 18.8285 18.8284C18.0783 19.5786 17.0609 20 16 20Z"
                fill="currentColor"
        />
    </g>

    <defs>
        <clipPath id="clip0">
            <rect width="32" height="32" />
        </clipPath>
    </defs>
</svg>
